<?xml version="1.0" encoding="utf-8" standalone="no"?>
<!DOCTYPE svg PUBLIC "-//W3C//DTD SVG 1.1//EN"
  "http://www.w3.org/Graphics/SVG/1.1/DTD/svg11.dtd">
<!-- Created with matplotlib (http://matplotlib.org/) -->
<svg height="144pt" version="1.1" viewBox="0 0 360 144" width="360pt" xmlns="http://www.w3.org/2000/svg" xmlns:xlink="http://www.w3.org/1999/xlink">
 <defs>
  <style type="text/css">
*{stroke-linecap:butt;stroke-linejoin:round;stroke-miterlimit:100000;}
  </style>
 </defs>
 <g id="figure_1">
  <g id="patch_1">
   <path d="M 0 144 
L 360 144 
L 360 0 
L 0 0 
z
" style="fill:#ffffff;"/>
  </g>
  <g id="axes_1">
   <g id="patch_2">
    <path d="M 45 126 
L 324 126 
L 324 14.4 
L 45 14.4 
z
" style="fill:#ffffff;"/>
   </g>
   <g id="matplotlib.axis_1">
    <g id="xtick_1">
     <g id="line2d_1"/>
     <g id="text_1">
      <!-- 50 -->
      <defs>
       <path d="M 4.15625 35.296875 
Q 4.15625 48 6.765625 55.734375 
Q 9.375 63.484375 14.515625 67.671875 
Q 19.671875 71.875 27.484375 71.875 
Q 33.25 71.875 37.59375 69.546875 
Q 41.9375 67.234375 44.765625 62.859375 
Q 47.609375 58.5 49.21875 52.21875 
Q 50.828125 45.953125 50.828125 35.296875 
Q 50.828125 22.703125 48.234375 14.96875 
Q 45.65625 7.234375 40.5 3 
Q 35.359375 -1.21875 27.484375 -1.21875 
Q 17.140625 -1.21875 11.234375 6.203125 
Q 4.15625 15.140625 4.15625 35.296875 
M 13.1875 35.296875 
Q 13.1875 17.671875 17.3125 11.828125 
Q 21.4375 6 27.484375 6 
Q 33.546875 6 37.671875 11.859375 
Q 41.796875 17.71875 41.796875 35.296875 
Q 41.796875 52.984375 37.671875 58.78125 
Q 33.546875 64.59375 27.390625 64.59375 
Q 21.34375 64.59375 17.71875 59.46875 
Q 13.1875 52.9375 13.1875 35.296875 
" id="ArialMT-30"/>
       <path d="M 4.15625 18.75 
L 13.375 19.53125 
Q 14.40625 12.796875 18.140625 9.390625 
Q 21.875 6 27.15625 6 
Q 33.5 6 37.890625 10.78125 
Q 42.28125 15.578125 42.28125 23.484375 
Q 42.28125 31 38.0625 35.34375 
Q 33.84375 39.703125 27 39.703125 
Q 22.75 39.703125 19.328125 37.765625 
Q 15.921875 35.84375 13.96875 32.765625 
L 5.71875 33.84375 
L 12.640625 70.609375 
L 48.25 70.609375 
L 48.25 62.203125 
L 19.671875 62.203125 
L 15.828125 42.96875 
Q 22.265625 47.46875 29.34375 47.46875 
Q 38.71875 47.46875 45.15625 40.96875 
Q 51.609375 34.46875 51.609375 24.265625 
Q 51.609375 14.546875 45.953125 7.46875 
Q 39.0625 -1.21875 27.15625 -1.21875 
Q 17.390625 -1.21875 11.203125 4.25 
Q 5.03125 9.71875 4.15625 18.75 
" id="ArialMT-35"/>
      </defs>
      <g style="fill:#262626;" transform="translate(271.613887675 140.1578125)scale(0.1 -0.1)">
       <use xlink:href="#ArialMT-35"/>
       <use x="55.615234375" xlink:href="#ArialMT-30"/>
      </g>
     </g>
    </g>
    <g id="xtick_2">
     <g id="line2d_2"/>
     <g id="text_2">
      <!-- 100 -->
      <defs>
       <path d="M 37.25 0 
L 28.46875 0 
L 28.46875 56 
Q 25.296875 52.984375 20.140625 49.953125 
Q 14.984375 46.921875 10.890625 45.40625 
L 10.890625 53.90625 
Q 18.265625 57.375 23.78125 62.296875 
Q 29.296875 67.234375 31.59375 71.875 
L 37.25 71.875 
z
" id="ArialMT-31"/>
      </defs>
      <g style="fill:#262626;" transform="translate(220.057195149 140.1578125)scale(0.1 -0.1)">
       <use xlink:href="#ArialMT-31"/>
       <use x="55.615234375" xlink:href="#ArialMT-30"/>
       <use x="111.23046875" xlink:href="#ArialMT-30"/>
      </g>
     </g>
    </g>
    <g id="xtick_3">
     <g id="line2d_3"/>
     <g id="text_3">
      <!-- 150 -->
      <g style="fill:#262626;" transform="translate(171.280971372 140.1578125)scale(0.1 -0.1)">
       <use xlink:href="#ArialMT-31"/>
       <use x="55.615234375" xlink:href="#ArialMT-35"/>
       <use x="111.23046875" xlink:href="#ArialMT-30"/>
      </g>
     </g>
    </g>
    <g id="xtick_4">
     <g id="line2d_4"/>
     <g id="text_4">
      <!-- 200 -->
      <defs>
       <path d="M 50.34375 8.453125 
L 50.34375 0 
L 3.03125 0 
Q 2.9375 3.171875 4.046875 6.109375 
Q 5.859375 10.9375 9.828125 15.625 
Q 13.8125 20.3125 21.34375 26.46875 
Q 33.015625 36.03125 37.109375 41.625 
Q 41.21875 47.21875 41.21875 52.203125 
Q 41.21875 57.421875 37.46875 61 
Q 33.734375 64.59375 27.734375 64.59375 
Q 21.390625 64.59375 17.578125 60.78125 
Q 13.765625 56.984375 13.71875 50.25 
L 4.6875 51.171875 
Q 5.609375 61.28125 11.65625 66.578125 
Q 17.71875 71.875 27.9375 71.875 
Q 38.234375 71.875 44.234375 66.15625 
Q 50.25 60.453125 50.25 52 
Q 50.25 47.703125 48.484375 43.546875 
Q 46.734375 39.40625 42.65625 34.8125 
Q 38.578125 30.21875 29.109375 22.21875 
Q 21.1875 15.578125 18.9375 13.203125 
Q 16.703125 10.84375 15.234375 8.453125 
z
" id="ArialMT-32"/>
      </defs>
      <g style="fill:#262626;" transform="translate(122.504747596 140.1578125)scale(0.1 -0.1)">
       <use xlink:href="#ArialMT-32"/>
       <use x="55.615234375" xlink:href="#ArialMT-30"/>
       <use x="111.23046875" xlink:href="#ArialMT-30"/>
      </g>
     </g>
    </g>
    <g id="xtick_5">
     <g id="line2d_5"/>
     <g id="text_5">
      <!-- 250 -->
      <g style="fill:#262626;" transform="translate(73.7285238199 140.1578125)scale(0.1 -0.1)">
       <use xlink:href="#ArialMT-32"/>
       <use x="55.615234375" xlink:href="#ArialMT-35"/>
       <use x="111.23046875" xlink:href="#ArialMT-30"/>
      </g>
     </g>
    </g>
    <g id="text_6">
     <!-- Days before election -->
     <defs>
      <path d="M 42.09375 16.703125 
L 51.171875 15.578125 
Q 49.03125 7.625 43.21875 3.21875 
Q 37.40625 -1.171875 28.375 -1.171875 
Q 17 -1.171875 10.328125 5.828125 
Q 3.65625 12.84375 3.65625 25.484375 
Q 3.65625 38.578125 10.390625 45.796875 
Q 17.140625 53.03125 27.875 53.03125 
Q 38.28125 53.03125 44.875 45.953125 
Q 51.46875 38.875 51.46875 26.03125 
Q 51.46875 25.25 51.421875 23.6875 
L 12.75 23.6875 
Q 13.234375 15.140625 17.578125 10.59375 
Q 21.921875 6.0625 28.421875 6.0625 
Q 33.25 6.0625 36.671875 8.59375 
Q 40.09375 11.140625 42.09375 16.703125 
M 13.234375 30.90625 
L 42.1875 30.90625 
Q 41.609375 37.453125 38.875 40.71875 
Q 34.671875 45.796875 27.984375 45.796875 
Q 21.921875 45.796875 17.796875 41.75 
Q 13.671875 37.703125 13.234375 30.90625 
" id="ArialMT-65"/>
      <path d="M 3.328125 25.921875 
Q 3.328125 40.328125 11.328125 47.265625 
Q 18.015625 53.03125 27.640625 53.03125 
Q 38.328125 53.03125 45.109375 46.015625 
Q 51.90625 39.015625 51.90625 26.65625 
Q 51.90625 16.65625 48.90625 10.90625 
Q 45.90625 5.171875 40.15625 2 
Q 34.421875 -1.171875 27.640625 -1.171875 
Q 16.75 -1.171875 10.03125 5.8125 
Q 3.328125 12.796875 3.328125 25.921875 
M 12.359375 25.921875 
Q 12.359375 15.96875 16.703125 11.015625 
Q 21.046875 6.0625 27.640625 6.0625 
Q 34.1875 6.0625 38.53125 11.03125 
Q 42.875 16.015625 42.875 26.21875 
Q 42.875 35.84375 38.5 40.796875 
Q 34.125 45.75 27.640625 45.75 
Q 21.046875 45.75 16.703125 40.8125 
Q 12.359375 35.890625 12.359375 25.921875 
" id="ArialMT-6f"/>
      <path id="ArialMT-20"/>
      <path d="M 8.6875 0 
L 8.6875 45.015625 
L 0.921875 45.015625 
L 0.921875 51.859375 
L 8.6875 51.859375 
L 8.6875 57.375 
Q 8.6875 62.59375 9.625 65.140625 
Q 10.890625 68.5625 14.078125 70.671875 
Q 17.28125 72.796875 23.046875 72.796875 
Q 26.765625 72.796875 31.25 71.921875 
L 29.9375 64.265625 
Q 27.203125 64.75 24.75 64.75 
Q 20.75 64.75 19.09375 63.03125 
Q 17.4375 61.328125 17.4375 56.640625 
L 17.4375 51.859375 
L 27.546875 51.859375 
L 27.546875 45.015625 
L 17.4375 45.015625 
L 17.4375 0 
z
" id="ArialMT-66"/>
      <path d="M 6.390625 0 
L 6.390625 71.578125 
L 15.1875 71.578125 
L 15.1875 0 
z
" id="ArialMT-6c"/>
      <path d="M 7.71875 0 
L 7.71875 71.578125 
L 32.375 71.578125 
Q 40.71875 71.578125 45.125 70.5625 
Q 51.265625 69.140625 55.609375 65.4375 
Q 61.28125 60.640625 64.078125 53.1875 
Q 66.890625 45.75 66.890625 36.1875 
Q 66.890625 28.03125 64.984375 21.734375 
Q 63.09375 15.4375 60.109375 11.296875 
Q 57.125 7.171875 53.578125 4.796875 
Q 50.046875 2.4375 45.046875 1.21875 
Q 40.046875 0 33.546875 0 
z
M 17.1875 8.453125 
L 32.46875 8.453125 
Q 39.546875 8.453125 43.578125 9.765625 
Q 47.609375 11.078125 50 13.484375 
Q 53.375 16.84375 55.25 22.53125 
Q 57.125 28.21875 57.125 36.328125 
Q 57.125 47.5625 53.4375 53.59375 
Q 49.75 59.625 44.484375 61.671875 
Q 40.671875 63.140625 32.234375 63.140625 
L 17.1875 63.140625 
z
" id="ArialMT-44"/>
      <path d="M 3.078125 15.484375 
L 11.765625 16.84375 
Q 12.5 11.625 15.84375 8.84375 
Q 19.1875 6.0625 25.203125 6.0625 
Q 31.25 6.0625 34.171875 8.515625 
Q 37.109375 10.984375 37.109375 14.3125 
Q 37.109375 17.28125 34.515625 19 
Q 32.71875 20.171875 25.53125 21.96875 
Q 15.875 24.421875 12.140625 26.203125 
Q 8.40625 27.984375 6.46875 31.125 
Q 4.546875 34.28125 4.546875 38.09375 
Q 4.546875 41.546875 6.125 44.5 
Q 7.71875 47.46875 10.453125 49.421875 
Q 12.5 50.921875 16.03125 51.96875 
Q 19.578125 53.03125 23.640625 53.03125 
Q 29.734375 53.03125 34.34375 51.265625 
Q 38.96875 49.515625 41.15625 46.5 
Q 43.359375 43.5 44.1875 38.484375 
L 35.59375 37.3125 
Q 35.015625 41.3125 32.203125 43.546875 
Q 29.390625 45.796875 24.265625 45.796875 
Q 18.21875 45.796875 15.625 43.796875 
Q 13.03125 41.796875 13.03125 39.109375 
Q 13.03125 37.40625 14.109375 36.03125 
Q 15.1875 34.625 17.484375 33.6875 
Q 18.796875 33.203125 25.25 31.453125 
Q 34.578125 28.953125 38.25 27.359375 
Q 41.9375 25.78125 44.03125 22.75 
Q 46.140625 19.734375 46.140625 15.234375 
Q 46.140625 10.84375 43.578125 6.953125 
Q 41.015625 3.078125 36.171875 0.953125 
Q 31.34375 -1.171875 25.25 -1.171875 
Q 15.140625 -1.171875 9.84375 3.03125 
Q 4.546875 7.234375 3.078125 15.484375 
" id="ArialMT-73"/>
      <path d="M 40.4375 6.390625 
Q 35.546875 2.25 31.03125 0.53125 
Q 26.515625 -1.171875 21.34375 -1.171875 
Q 12.796875 -1.171875 8.203125 3 
Q 3.609375 7.171875 3.609375 13.671875 
Q 3.609375 17.484375 5.34375 20.625 
Q 7.078125 23.78125 9.890625 25.6875 
Q 12.703125 27.59375 16.21875 28.5625 
Q 18.796875 29.25 24.03125 29.890625 
Q 34.671875 31.15625 39.703125 32.90625 
Q 39.75 34.71875 39.75 35.203125 
Q 39.75 40.578125 37.25 42.78125 
Q 33.890625 45.75 27.25 45.75 
Q 21.046875 45.75 18.09375 43.578125 
Q 15.140625 41.40625 13.71875 35.890625 
L 5.125 37.0625 
Q 6.296875 42.578125 8.984375 45.96875 
Q 11.671875 49.359375 16.75 51.1875 
Q 21.828125 53.03125 28.515625 53.03125 
Q 35.15625 53.03125 39.296875 51.46875 
Q 43.453125 49.90625 45.40625 47.53125 
Q 47.359375 45.171875 48.140625 41.546875 
Q 48.578125 39.3125 48.578125 33.453125 
L 48.578125 21.734375 
Q 48.578125 9.46875 49.140625 6.21875 
Q 49.703125 2.984375 51.375 0 
L 42.1875 0 
Q 40.828125 2.734375 40.4375 6.390625 
M 39.703125 26.03125 
Q 34.90625 24.078125 25.34375 22.703125 
Q 19.921875 21.921875 17.671875 20.9375 
Q 15.4375 19.96875 14.203125 18.09375 
Q 12.984375 16.21875 12.984375 13.921875 
Q 12.984375 10.40625 15.640625 8.0625 
Q 18.3125 5.71875 23.4375 5.71875 
Q 28.515625 5.71875 32.46875 7.9375 
Q 36.421875 10.15625 38.28125 14.015625 
Q 39.703125 17 39.703125 22.796875 
z
" id="ArialMT-61"/>
      <path d="M 25.78125 7.859375 
L 27.046875 0.09375 
Q 23.34375 -0.6875 20.40625 -0.6875 
Q 15.625 -0.6875 12.984375 0.828125 
Q 10.359375 2.34375 9.28125 4.8125 
Q 8.203125 7.28125 8.203125 15.1875 
L 8.203125 45.015625 
L 1.765625 45.015625 
L 1.765625 51.859375 
L 8.203125 51.859375 
L 8.203125 64.703125 
L 16.9375 69.96875 
L 16.9375 51.859375 
L 25.78125 51.859375 
L 25.78125 45.015625 
L 16.9375 45.015625 
L 16.9375 14.703125 
Q 16.9375 10.9375 17.40625 9.859375 
Q 17.875 8.796875 18.921875 8.15625 
Q 19.96875 7.515625 21.921875 7.515625 
Q 23.390625 7.515625 25.78125 7.859375 
" id="ArialMT-74"/>
      <path d="M 40.4375 19 
L 49.078125 17.875 
Q 47.65625 8.9375 41.8125 3.875 
Q 35.984375 -1.171875 27.484375 -1.171875 
Q 16.84375 -1.171875 10.375 5.78125 
Q 3.90625 12.75 3.90625 25.734375 
Q 3.90625 34.125 6.6875 40.421875 
Q 9.46875 46.734375 15.15625 49.875 
Q 20.84375 53.03125 27.546875 53.03125 
Q 35.984375 53.03125 41.359375 48.75 
Q 46.734375 44.484375 48.25 36.625 
L 39.703125 35.296875 
Q 38.484375 40.53125 35.375 43.15625 
Q 32.28125 45.796875 27.875 45.796875 
Q 21.234375 45.796875 17.078125 41.03125 
Q 12.9375 36.28125 12.9375 25.984375 
Q 12.9375 15.53125 16.9375 10.796875 
Q 20.953125 6.0625 27.390625 6.0625 
Q 32.5625 6.0625 36.03125 9.234375 
Q 39.5 12.40625 40.4375 19 
" id="ArialMT-63"/>
      <path d="M 6.203125 -19.96875 
L 5.21875 -11.71875 
Q 8.109375 -12.5 10.25 -12.5 
Q 13.1875 -12.5 14.9375 -11.515625 
Q 16.703125 -10.546875 17.828125 -8.796875 
Q 18.65625 -7.46875 20.515625 -2.25 
Q 20.75 -1.515625 21.296875 -0.09375 
L 1.609375 51.859375 
L 11.078125 51.859375 
L 21.875 21.828125 
Q 23.96875 16.109375 25.640625 9.8125 
Q 27.15625 15.875 29.25 21.625 
L 40.328125 51.859375 
L 49.125 51.859375 
L 29.390625 -0.875 
Q 26.21875 -9.421875 24.46875 -12.640625 
Q 22.125 -17 19.09375 -19.015625 
Q 16.0625 -21.046875 11.859375 -21.046875 
Q 9.328125 -21.046875 6.203125 -19.96875 
" id="ArialMT-79"/>
      <path d="M 6.59375 0 
L 6.59375 51.859375 
L 14.5 51.859375 
L 14.5 44.484375 
Q 20.21875 53.03125 31 53.03125 
Q 35.6875 53.03125 39.625 51.34375 
Q 43.5625 49.65625 45.515625 46.921875 
Q 47.46875 44.1875 48.25 40.4375 
Q 48.734375 37.984375 48.734375 31.890625 
L 48.734375 0 
L 39.9375 0 
L 39.9375 31.546875 
Q 39.9375 36.921875 38.90625 39.578125 
Q 37.890625 42.234375 35.28125 43.8125 
Q 32.671875 45.40625 29.15625 45.40625 
Q 23.53125 45.40625 19.453125 41.84375 
Q 15.375 38.28125 15.375 28.328125 
L 15.375 0 
z
" id="ArialMT-6e"/>
      <path d="M 6.640625 61.46875 
L 6.640625 71.578125 
L 15.4375 71.578125 
L 15.4375 61.46875 
z
M 6.640625 0 
L 6.640625 51.859375 
L 15.4375 51.859375 
L 15.4375 0 
z
" id="ArialMT-69"/>
      <path d="M 6.5 0 
L 6.5 51.859375 
L 14.40625 51.859375 
L 14.40625 44 
Q 17.4375 49.515625 20 51.265625 
Q 22.5625 53.03125 25.640625 53.03125 
Q 30.078125 53.03125 34.671875 50.203125 
L 31.640625 42.046875 
Q 28.421875 43.953125 25.203125 43.953125 
Q 22.3125 43.953125 20.015625 42.21875 
Q 17.71875 40.484375 16.75 37.40625 
Q 15.28125 32.71875 15.28125 27.15625 
L 15.28125 0 
z
" id="ArialMT-72"/>
      <path d="M 14.703125 0 
L 6.546875 0 
L 6.546875 71.578125 
L 15.328125 71.578125 
L 15.328125 46.046875 
Q 20.90625 53.03125 29.546875 53.03125 
Q 34.328125 53.03125 38.59375 51.09375 
Q 42.875 49.171875 45.625 45.671875 
Q 48.390625 42.1875 49.953125 37.25 
Q 51.515625 32.328125 51.515625 26.703125 
Q 51.515625 13.375 44.921875 6.09375 
Q 38.328125 -1.171875 29.109375 -1.171875 
Q 19.921875 -1.171875 14.703125 6.5 
z
M 14.59375 26.3125 
Q 14.59375 17 17.140625 12.84375 
Q 21.296875 6.0625 28.375 6.0625 
Q 34.125 6.0625 38.328125 11.0625 
Q 42.53125 16.0625 42.53125 25.984375 
Q 42.53125 36.140625 38.5 40.96875 
Q 34.46875 45.796875 28.765625 45.796875 
Q 23 45.796875 18.796875 40.796875 
Q 14.59375 35.796875 14.59375 26.3125 
" id="ArialMT-62"/>
     </defs>
     <g style="fill:#262626;" transform="translate(134.3640625 155.15296875)scale(0.11 -0.11)">
      <use xlink:href="#ArialMT-44"/>
      <use x="72.216796875" xlink:href="#ArialMT-61"/>
      <use x="127.83203125" xlink:href="#ArialMT-79"/>
      <use x="177.83203125" xlink:href="#ArialMT-73"/>
      <use x="227.83203125" xlink:href="#ArialMT-20"/>
      <use x="255.615234375" xlink:href="#ArialMT-62"/>
      <use x="311.23046875" xlink:href="#ArialMT-65"/>
      <use x="366.845703125" xlink:href="#ArialMT-66"/>
      <use x="394.62890625" xlink:href="#ArialMT-6f"/>
      <use x="450.244140625" xlink:href="#ArialMT-72"/>
      <use x="483.544921875" xlink:href="#ArialMT-65"/>
      <use x="539.16015625" xlink:href="#ArialMT-20"/>
      <use x="566.943359375" xlink:href="#ArialMT-65"/>
      <use x="622.55859375" xlink:href="#ArialMT-6c"/>
      <use x="644.775390625" xlink:href="#ArialMT-65"/>
      <use x="700.390625" xlink:href="#ArialMT-63"/>
      <use x="750.390625" xlink:href="#ArialMT-74"/>
      <use x="778.173828125" xlink:href="#ArialMT-69"/>
      <use x="800.390625" xlink:href="#ArialMT-6f"/>
      <use x="856.005859375" xlink:href="#ArialMT-6e"/>
     </g>
    </g>
   </g>
   <g id="matplotlib.axis_2">
    <g id="ytick_1">
     <g id="line2d_6"/>
     <g id="text_7">
      <!-- 0 -->
      <g style="fill:#262626;" transform="translate(32.4390625 128.58515625)scale(0.1 -0.1)">
       <use xlink:href="#ArialMT-30"/>
      </g>
     </g>
    </g>
    <g id="ytick_2">
     <g id="line2d_7"/>
     <g id="text_8">
      <!-- 5 -->
      <g style="fill:#262626;" transform="translate(32.4390625 103.221519886)scale(0.1 -0.1)">
       <use xlink:href="#ArialMT-35"/>
      </g>
     </g>
    </g>
    <g id="ytick_3">
     <g id="line2d_8"/>
     <g id="text_9">
      <!-- 10 -->
      <g style="fill:#262626;" transform="translate(26.878125 77.8578835227)scale(0.1 -0.1)">
       <use xlink:href="#ArialMT-31"/>
       <use x="55.615234375" xlink:href="#ArialMT-30"/>
      </g>
     </g>
    </g>
    <g id="ytick_4">
     <g id="line2d_9"/>
     <g id="text_10">
      <!-- 15 -->
      <g style="fill:#262626;" transform="translate(26.878125 52.4942471591)scale(0.1 -0.1)">
       <use xlink:href="#ArialMT-31"/>
       <use x="55.615234375" xlink:href="#ArialMT-35"/>
      </g>
     </g>
    </g>
    <g id="ytick_5">
     <g id="line2d_10"/>
     <g id="text_11">
      <!-- 20 -->
      <g style="fill:#262626;" transform="translate(26.878125 27.1306107955)scale(0.1 -0.1)">
       <use xlink:href="#ArialMT-32"/>
       <use x="55.615234375" xlink:href="#ArialMT-30"/>
      </g>
     </g>
    </g>
    <g id="text_12">
     <!-- Donations ($millions) -->
     <defs>
      <path d="M 12.359375 -21.046875 
L 6.0625 -21.046875 
Q 20.65625 2.390625 20.65625 25.875 
Q 20.65625 35.0625 18.5625 44.09375 
Q 16.890625 51.421875 13.921875 58.15625 
Q 12.015625 62.546875 6.0625 72.796875 
L 12.359375 72.796875 
Q 21.53125 60.546875 25.921875 48.1875 
Q 29.6875 37.546875 29.6875 25.921875 
Q 29.6875 12.75 24.625 0.4375 
Q 19.578125 -11.859375 12.359375 -21.046875 
" id="ArialMT-29"/>
      <path d="M 23.390625 -21.046875 
Q 16.109375 -11.859375 11.078125 0.4375 
Q 6.0625 12.75 6.0625 25.921875 
Q 6.0625 37.546875 9.8125 48.1875 
Q 14.203125 60.546875 23.390625 72.796875 
L 29.6875 72.796875 
Q 23.78125 62.640625 21.875 58.296875 
Q 18.890625 51.5625 17.1875 44.234375 
Q 15.09375 35.109375 15.09375 25.875 
Q 15.09375 2.390625 29.6875 -21.046875 
z
" id="ArialMT-28"/>
      <path d="M 24.90625 -10.296875 
L 24.90625 -1.515625 
Q 18.3125 -0.6875 14.1875 1.4375 
Q 10.0625 3.5625 7.046875 8.296875 
Q 4.046875 13.03125 3.5625 19.875 
L 12.40625 21.53125 
Q 13.421875 14.453125 16.015625 11.140625 
Q 19.734375 6.453125 24.90625 5.90625 
L 24.90625 33.890625 
Q 19.484375 34.90625 13.8125 38.09375 
Q 9.625 40.4375 7.34375 44.578125 
Q 5.078125 48.734375 5.078125 54 
Q 5.078125 63.375 11.71875 69.1875 
Q 16.15625 73.09375 24.90625 73.96875 
L 24.90625 78.171875 
L 30.078125 78.171875 
L 30.078125 73.96875 
Q 37.75 73.25 42.234375 69.484375 
Q 48 64.703125 49.171875 56.34375 
L 40.09375 54.984375 
Q 39.3125 60.15625 36.84375 62.90625 
Q 34.375 65.671875 30.078125 66.546875 
L 30.078125 41.21875 
Q 36.71875 39.546875 38.875 38.625 
Q 42.96875 36.8125 45.546875 34.21875 
Q 48.140625 31.640625 49.53125 28.078125 
Q 50.921875 24.515625 50.921875 20.359375 
Q 50.921875 11.234375 45.109375 5.125 
Q 39.3125 -0.984375 30.078125 -1.421875 
L 30.078125 -10.296875 
z
M 24.90625 66.65625 
Q 19.78125 65.875 16.828125 62.546875 
Q 13.875 59.234375 13.875 54.6875 
Q 13.875 50.203125 16.375 47.171875 
Q 18.890625 44.140625 24.90625 42.328125 
z
M 30.078125 5.90625 
Q 35.203125 6.546875 38.546875 10.34375 
Q 41.890625 14.15625 41.890625 19.78125 
Q 41.890625 24.5625 39.515625 27.46875 
Q 37.15625 30.375 30.078125 32.671875 
z
" id="ArialMT-24"/>
      <path d="M 6.59375 0 
L 6.59375 51.859375 
L 14.453125 51.859375 
L 14.453125 44.578125 
Q 16.890625 48.390625 20.9375 50.703125 
Q 25 53.03125 30.171875 53.03125 
Q 35.9375 53.03125 39.625 50.640625 
Q 43.3125 48.25 44.828125 43.953125 
Q 50.984375 53.03125 60.84375 53.03125 
Q 68.5625 53.03125 72.703125 48.75 
Q 76.859375 44.484375 76.859375 35.59375 
L 76.859375 0 
L 68.109375 0 
L 68.109375 32.671875 
Q 68.109375 37.9375 67.25 40.25 
Q 66.40625 42.578125 64.15625 43.984375 
Q 61.921875 45.40625 58.890625 45.40625 
Q 53.421875 45.40625 49.796875 41.765625 
Q 46.1875 38.140625 46.1875 30.125 
L 46.1875 0 
L 37.40625 0 
L 37.40625 33.6875 
Q 37.40625 39.546875 35.25 42.46875 
Q 33.109375 45.40625 28.21875 45.40625 
Q 24.515625 45.40625 21.359375 43.453125 
Q 18.21875 41.5 16.796875 37.734375 
Q 15.375 33.984375 15.375 26.90625 
L 15.375 0 
z
" id="ArialMT-6d"/>
     </defs>
     <g style="fill:#262626;" transform="translate(19.56296875 121.550234375)rotate(-90.0)scale(0.11 -0.11)">
      <use xlink:href="#ArialMT-44"/>
      <use x="72.216796875" xlink:href="#ArialMT-6f"/>
      <use x="127.83203125" xlink:href="#ArialMT-6e"/>
      <use x="183.447265625" xlink:href="#ArialMT-61"/>
      <use x="239.0625" xlink:href="#ArialMT-74"/>
      <use x="266.845703125" xlink:href="#ArialMT-69"/>
      <use x="289.0625" xlink:href="#ArialMT-6f"/>
      <use x="344.677734375" xlink:href="#ArialMT-6e"/>
      <use x="400.29296875" xlink:href="#ArialMT-73"/>
      <use x="450.29296875" xlink:href="#ArialMT-20"/>
      <use x="478.076171875" xlink:href="#ArialMT-28"/>
      <use x="511.376953125" xlink:href="#ArialMT-24"/>
      <use x="566.9921875" xlink:href="#ArialMT-6d"/>
      <use x="650.29296875" xlink:href="#ArialMT-69"/>
      <use x="672.509765625" xlink:href="#ArialMT-6c"/>
      <use x="694.7265625" xlink:href="#ArialMT-6c"/>
      <use x="716.943359375" xlink:href="#ArialMT-69"/>
      <use x="739.16015625" xlink:href="#ArialMT-6f"/>
      <use x="794.775390625" xlink:href="#ArialMT-6e"/>
      <use x="850.390625" xlink:href="#ArialMT-73"/>
      <use x="900.390625" xlink:href="#ArialMT-29"/>
     </g>
    </g>
   </g>
   <g id="line2d_11">
    <path clip-path="url(#p91bcd179d4)" d="M 45 125.991123 
L 47.926573 125.927683 
L 48.902098 125.562447 
L 50.853147 125.386768 
L 52.804196 125.285212 
L 56.706294 125.223426 
L 57.681818 124.612198 
L 61.583916 124.604716 
L 63.534965 123.755754 
L 66.461538 123.645169 
L 71.339161 123.052421 
L 72.314685 122.75313 
L 78.167832 122.651193 
L 79.143357 122.143921 
L 80.118881 122.143921 
L 83.045455 121.723975 
L 85.972028 121.659247 
L 86.947552 121.151974 
L 89.874126 121.036697 
L 90.84965 120.992057 
L 91.825175 120.357966 
L 95.727273 120.338689 
L 96.702797 120.185747 
L 104.506993 120.026138 
L 105.482517 119.872435 
L 113.286713 119.561142 
L 114.262238 119.443201 
L 115.237762 119.443201 
L 116.213287 118.277488 
L 118.164336 117.818913 
L 123.041958 117.742493 
L 124.017483 117.474399 
L 124.993007 116.779436 
L 126.944056 116.441516 
L 127.91958 116.441516 
L 130.846154 115.859172 
L 131.821678 115.848519 
L 132.797203 115.537348 
L 133.772727 115.373118 
L 135.723776 115.373118 
L 136.699301 114.391525 
L 137.674825 114.276882 
L 139.625874 113.779323 
L 140.601399 113.606597 
L 142.552448 113.474199 
L 143.527972 112.948157 
L 145.479021 112.85563 
L 146.454545 111.357055 
L 147.43007 110.066351 
L 150.356643 109.874749 
L 151.332168 109.473892 
L 152.307692 108.893267 
L 155.234266 108.581812 
L 156.20979 108.581457 
L 157.185315 108.158899 
L 158.160839 107.871016 
L 160.111888 107.763363 
L 163.038462 107.530844 
L 164.98951 106.259101 
L 166.940559 105.702187 
L 167.916084 105.6961 
L 169.867133 105.239554 
L 171.818182 105.198846 
L 173.769231 104.987222 
L 174.744755 104.159611 
L 176.695804 104.158597 
L 177.671329 103.293443 
L 180.597902 102.579381 
L 181.573427 101.915868 
L 185.475524 101.695473 
L 186.451049 101.128621 
L 187.426573 99.89539 
L 188.402098 99.690325 
L 191.328671 99.619941 
L 194.255245 99.416018 
L 195.230769 98.232672 
L 198.157343 98.147856 
L 199.132867 97.81052 
L 200.108392 97.13048 
L 202.059441 96.868961 
L 204.01049 96.856279 
L 207.912587 96.200898 
L 208.888112 95.833226 
L 209.863636 95.833226 
L 212.79021 95.608352 
L 213.765734 94.729655 
L 214.741259 94.563447 
L 215.716783 94.527583 
L 219.618881 93.043977 
L 220.594406 91.417356 
L 221.56993 91.077484 
L 222.545455 90.8694 
L 223.520979 90.8694 
L 225.472028 90.73751 
L 226.447552 90.502515 
L 230.34965 90.065693 
L 233.276224 89.949877 
L 234.251748 89.474309 
L 236.202797 89.328859 
L 239.129371 89.328859 
L 243.031469 88.524035 
L 244.006993 88.524035 
L 245.958042 88.205955 
L 246.933566 86.932751 
L 247.909091 86.642084 
L 248.884615 85.962541 
L 249.86014 85.520707 
L 251.811189 85.509293 
L 253.762238 85.216089 
L 254.737762 84.488914 
L 255.713287 84.389945 
L 256.688811 83.157526 
L 257.664336 83.157222 
L 258.63986 81.971756 
L 259.615385 80.387492 
L 260.590909 80.07628 
L 261.566434 78.799221 
L 262.541958 78.478929 
L 263.517483 77.497991 
L 265.468531 77.476675 
L 266.444056 76.26095 
L 267.41958 76.081736 
L 268.395105 76.017607 
L 269.370629 75.523523 
L 270.346154 75.247313 
L 272.297203 75.222203 
L 273.272727 74.601808 
L 274.248252 74.529268 
L 275.223776 73.988008 
L 276.199301 73.700649 
L 277.174825 72.392646 
L 278.15035 72.265828 
L 279.125874 72.265828 
L 280.101399 71.151679 
L 281.076923 69.441856 
L 282.052448 68.195121 
L 283.027972 67.667684 
L 284.003497 66.465093 
L 286.93007 65.421197 
L 287.905594 65.364818 
L 288.881119 64.332341 
L 289.856643 63.593894 
L 290.832168 63.246412 
L 291.807692 63.23373 
L 292.783217 62.726457 
L 293.758741 62.026406 
L 294.734266 60.536292 
L 295.70979 58.368543 
L 296.685315 57.027264 
L 297.660839 54.714095 
L 298.636364 54.714095 
L 299.611888 54.455827 
L 302.538462 52.132609 
L 303.513986 50.219937 
L 304.48951 47.96716 
L 306.440559 47.872046 
L 307.416084 46.57181 
L 308.391608 44.374918 
L 309.367133 42.56399 
L 310.342657 40.442068 
L 311.318182 38.906832 
L 313.269231 38.80411 
L 314.244755 37.127675 
L 315.22028 34.089679 
L 316.195804 32.99397 
L 317.171329 32.304632 
L 318.146853 29.83949 
L 319.122378 29.063362 
L 320.097902 26.473735 
L 321.073427 24.920212 
L 322.048951 22.974152 
L 323.024476 21.804635 
L 324 21.540351 
L 324 21.540351 
" style="fill:none;opacity:0.8;stroke:#00ffff;stroke-linecap:round;stroke-width:1.75;"/>
   </g>
   <g id="line2d_12">
    <path clip-path="url(#p91bcd179d4)" d="M 45 125.988586 
L 48.902098 125.977426 
L 49.877622 125.757716 
L 55.730769 125.744324 
L 56.706294 125.237052 
L 59.632867 125.111603 
L 61.583916 125.071503 
L 62.559441 124.883812 
L 63.534965 124.87874 
L 64.51049 124.615389 
L 70.363636 124.462294 
L 71.339161 124.230785 
L 72.314685 124.146101 
L 76.216783 124.069284 
L 77.192308 123.66093 
L 82.06993 123.513415 
L 84.020979 123.152115 
L 84.996503 123.146028 
L 85.972028 122.902714 
L 86.947552 122.901446 
L 89.874126 122.415099 
L 90.84965 122.363534 
L 91.825175 122.123594 
L 94.751748 122.048538 
L 96.702797 121.931105 
L 97.678322 121.915125 
L 98.653846 121.696389 
L 104.506993 121.536659 
L 108.409091 121.369214 
L 109.384615 121.208687 
L 110.36014 121.207166 
L 112.311189 120.36456 
L 118.164336 120.086057 
L 119.13986 119.839776 
L 121.090909 119.769834 
L 123.041958 119.724012 
L 124.993007 119.402832 
L 126.944056 118.921557 
L 127.91958 118.778506 
L 129.870629 118.3369 
L 133.772727 117.936154 
L 135.723776 117.928545 
L 136.699301 116.863272 
L 154.258741 116.18024 
L 157.185315 116.176435 
L 158.160839 116.048603 
L 164.013986 115.942075 
L 164.98951 115.536764 
L 169.867133 115.481472 
L 170.842657 115.32929 
L 177.671329 115.241572 
L 181.573427 114.969157 
L 183.524476 114.857557 
L 185.475524 114.075444 
L 191.328671 113.838568 
L 193.27972 113.326273 
L 194.255245 113.198212 
L 195.230769 112.836805 
L 198.157343 112.749504 
L 200.108392 112.572542 
L 204.01049 112.479381 
L 204.986014 112.245072 
L 207.912587 112.112242 
L 209.863636 111.848258 
L 212.79021 111.541576 
L 213.765734 111.40101 
L 214.741259 111.139765 
L 215.716783 111.011171 
L 218.643357 110.825905 
L 219.618881 110.511396 
L 223.520979 110.070551 
L 226.447552 109.983422 
L 227.423077 109.783556 
L 228.398601 109.247318 
L 232.300699 109.247318 
L 233.276224 108.68455 
L 239.129371 107.99126 
L 241.08042 107.556959 
L 242.055944 105.971224 
L 244.006993 105.783305 
L 245.958042 104.993228 
L 247.909091 104.759882 
L 248.884615 104.578786 
L 249.86014 103.702447 
L 251.811189 103.702447 
L 254.737762 103.258766 
L 255.713287 103.223003 
L 256.688811 102.860557 
L 259.615385 102.837729 
L 261.566434 101.76812 
L 262.541958 101.029114 
L 265.468531 100.260414 
L 267.41958 99.125264 
L 268.395105 97.52526 
L 269.370629 97.143395 
L 271.321678 96.852271 
L 272.297203 96.852271 
L 273.272727 96.343654 
L 274.248252 95.505133 
L 275.223776 95.055613 
L 276.199301 94.054307 
L 277.174825 93.307297 
L 279.125874 93.260664 
L 281.076923 92.15837 
L 282.052448 92.000609 
L 283.027972 89.963736 
L 284.003497 87.307494 
L 286.93007 86.810468 
L 287.905594 86.141122 
L 288.881119 85.697258 
L 289.856643 84.722944 
L 290.832168 84.252337 
L 292.783217 84.176246 
L 293.758741 82.604462 
L 294.734266 80.63353 
L 295.70979 80.442795 
L 297.660839 79.634101 
L 299.611888 79.594584 
L 300.587413 75.71581 
L 302.538462 74.435347 
L 303.513986 73.871158 
L 304.48951 73.10999 
L 307.416084 72.915324 
L 308.391608 72.418299 
L 309.367133 71.576941 
L 311.318182 69.459103 
L 313.269231 69.360692 
L 314.244755 68.502386 
L 315.22028 67.211205 
L 316.195804 65.600868 
L 318.146853 63.863864 
L 319.122378 63.632107 
L 320.097902 63.632107 
L 321.073427 63.399603 
L 322.048951 62.443709 
L 323.024476 62.087806 
L 324 61.16808 
L 324 61.16808 
" style="fill:none;opacity:0.8;stroke:#55aaff;stroke-linecap:round;stroke-width:1.75;"/>
   </g>
   <g id="line2d_13">
    <path clip-path="url(#p91bcd179d4)" d="M 45 125.977989 
L 50.853147 125.878437 
L 57.681818 125.55741 
L 59.632867 125.546336 
L 65.486014 125.192939 
L 69.388112 125.180257 
L 70.363636 124.727263 
L 80.118881 124.660049 
L 90.84965 124.453944 
L 91.825175 124.453944 
L 93.776224 124.342344 
L 98.653846 124.335425 
L 99.629371 124.223825 
L 105.482517 124.154653 
L 108.409091 124.106463 
L 119.13986 124.004602 
L 120.115385 123.456748 
L 124.993007 123.449139 
L 126.944056 123.201422 
L 129.870629 123.154753 
L 130.846154 122.992426 
L 131.821678 122.98228 
L 132.797203 122.81488 
L 137.674825 122.753551 
L 142.552448 122.610546 
L 143.527972 122.602937 
L 144.503497 122.380751 
L 146.454545 122.273717 
L 147.43007 121.360676 
L 150.356643 121.360676 
L 152.307692 120.769957 
L 167.916084 120.465391 
L 173.769231 120.360933 
L 174.744755 119.691333 
L 179.622378 119.603489 
L 181.573427 119.45638 
L 186.451049 119.395761 
L 187.426573 119.133643 
L 188.402098 119.054001 
L 190.353147 119.054001 
L 192.304196 118.823902 
L 195.230769 118.798538 
L 198.157343 118.659038 
L 199.132867 117.390856 
L 201.083916 116.978292 
L 203.034965 116.898599 
L 204.01049 116.898599 
L 205.961538 116.643948 
L 206.937063 116.62873 
L 208.888112 116.209469 
L 209.863636 116.209469 
L 212.79021 116.017603 
L 213.765734 116.017603 
L 214.741259 115.653889 
L 221.56993 115.551673 
L 223.520979 115.536384 
L 227.423077 115.299488 
L 230.34965 115.208179 
L 232.300699 115.187685 
L 233.276224 114.415961 
L 235.227273 113.970829 
L 237.178322 113.868613 
L 241.08042 113.83209 
L 244.006993 113.703861 
L 245.958042 113.673222 
L 249.86014 113.276788 
L 253.762238 113.167725 
L 255.713287 113.011241 
L 256.688811 111.668744 
L 257.664336 111.668744 
L 259.615385 110.644119 
L 260.590909 110.501322 
L 262.541958 110.490831 
L 263.517483 110.261544 
L 266.444056 110.261037 
L 268.395105 110.076121 
L 271.321678 110.02484 
L 274.248252 109.987556 
L 276.199301 109.751928 
L 277.174825 109.096592 
L 279.125874 109.09507 
L 280.101399 108.820332 
L 287.905594 107.722025 
L 288.881119 106.16518 
L 289.856643 105.868243 
L 293.758741 105.802784 
L 294.734266 105.260002 
L 295.70979 105.174273 
L 296.685315 100.363806 
L 297.660839 99.840681 
L 299.611888 99.840681 
L 300.587413 99.465299 
L 301.562937 93.941099 
L 302.538462 93.65794 
L 303.513986 91.538072 
L 304.48951 91.137098 
L 306.440559 91.055935 
L 307.416084 90.179758 
L 309.367133 88.060251 
L 310.342657 88.060251 
L 311.318182 87.856835 
L 313.269231 87.856835 
L 314.244755 87.113964 
L 315.22028 86.970127 
L 316.195804 86.485681 
L 317.171329 86.304331 
L 319.122378 85.431249 
L 320.097902 85.417299 
L 321.073427 84.116145 
L 322.048951 83.076236 
L 323.024476 82.256584 
L 324 82.228177 
L 324 82.228177 
" style="fill:none;opacity:0.8;stroke:#aa55ff;stroke-linecap:round;stroke-width:1.75;"/>
   </g>
   <g id="line2d_14">
    <path clip-path="url(#p91bcd179d4)" d="M 45 125.990742 
L 48.902098 125.934942 
L 52.804196 125.44342 
L 55.730769 125.316602 
L 56.706294 124.632068 
L 58.657343 124.553334 
L 66.461538 124.51675 
L 69.388112 124.344784 
L 75.241259 124.165971 
L 76.216783 123.912334 
L 78.167832 123.866107 
L 79.143357 123.668575 
L 84.996503 123.570057 
L 85.972028 123.422187 
L 89.874126 123.411534 
L 90.84965 122.81519 
L 92.800699 122.483408 
L 96.702797 122.380873 
L 98.653846 122.067683 
L 102.555944 122.066846 
L 104.506993 121.902672 
L 105.482517 121.897092 
L 106.458042 121.757592 
L 108.409091 121.75257 
L 109.384615 121.625752 
L 124.993007 121.410475 
L 127.91958 121.04564 
L 138.65035 120.912359 
L 139.625874 120.772859 
L 140.601399 120.772859 
L 143.527972 120.661259 
L 163.038462 120.602502 
L 164.013986 120.484789 
L 176.695804 120.418285 
L 178.646853 120.341073 
L 180.597902 120.232213 
L 186.451049 120.122388 
L 187.426573 119.801792 
L 190.353147 119.744166 
L 193.27972 119.652882 
L 194.255245 119.49233 
L 199.132867 119.326401 
L 200.108392 118.935801 
L 203.034965 118.71707 
L 204.01049 118.709461 
L 206.937063 118.402505 
L 207.912587 118.387845 
L 208.888112 117.568138 
L 211.814685 117.568138 
L 212.79021 117.309429 
L 221.56993 116.967436 
L 222.545455 116.7975 
L 227.423077 116.704613 
L 229.374126 116.614557 
L 230.34965 116.614557 
L 236.202797 116.330494 
L 241.08042 116.254459 
L 242.055944 116.128909 
L 244.006993 116.123329 
L 245.958042 115.257744 
L 246.933566 115.114186 
L 247.909091 114.578912 
L 248.884615 114.176898 
L 251.811189 114.157419 
L 253.762238 113.996867 
L 261.566434 113.541843 
L 262.541958 113.154541 
L 267.41958 112.654517 
L 268.395105 112.493798 
L 269.370629 112.20971 
L 272.297203 112.205778 
L 273.272727 112.020877 
L 274.248252 110.146505 
L 275.223776 109.75489 
L 276.199301 109.040386 
L 277.174825 108.879784 
L 278.15035 108.879784 
L 279.125874 108.445031 
L 280.101399 108.159812 
L 281.076923 107.246442 
L 283.027972 106.881916 
L 284.003497 106.443125 
L 286.93007 105.595472 
L 293.758741 105.070982 
L 294.734266 103.171687 
L 296.685315 102.349708 
L 297.660839 101.637887 
L 300.587413 101.597306 
L 303.513986 100.071135 
L 304.48951 99.953843 
L 307.416084 99.886478 
L 310.342657 98.332853 
L 311.318182 98.169557 
L 313.269231 98.169557 
L 314.244755 97.965263 
L 317.171329 96.609749 
L 318.146853 96.399231 
L 320.097902 96.399231 
L 321.073427 95.543604 
L 322.048951 95.081301 
L 323.024476 94.767299 
L 324 94.17133 
L 324 94.17133 
" style="fill:none;opacity:0.8;stroke:#ff00ff;stroke-linecap:round;stroke-width:1.75;"/>
   </g>
   <g id="patch_3">
    <path d="M 45 126 
L 45 14.4 
" style="fill:none;stroke:#262626;stroke-linecap:square;stroke-linejoin:miter;stroke-width:1.25;"/>
   </g>
   <g id="patch_4">
    <path d="M 45 126 
L 324 126 
" style="fill:none;stroke:#262626;stroke-linecap:square;stroke-linejoin:miter;stroke-width:1.25;"/>
   </g>
   <g id="legend_1">
    <g id="line2d_15">
     <path d="M 54 27.057813 
L 74 27.057813 
" style="fill:none;opacity:0.8;stroke:#00ffff;stroke-linecap:round;stroke-width:1.75;"/>
    </g>
    <g id="line2d_16"/>
    <g id="text_13">
     <!-- Abbott 2013 -->
     <defs>
      <path d="M -0.140625 0 
L 27.34375 71.578125 
L 37.546875 71.578125 
L 66.84375 0 
L 56.0625 0 
L 47.703125 21.6875 
L 17.78125 21.6875 
L 9.90625 0 
z
M 20.515625 29.390625 
L 44.78125 29.390625 
L 37.3125 49.21875 
Q 33.890625 58.25 32.234375 64.0625 
Q 30.859375 57.171875 28.375 50.390625 
z
" id="ArialMT-41"/>
      <path d="M 4.203125 18.890625 
L 12.984375 20.0625 
Q 14.5 12.59375 18.140625 9.296875 
Q 21.78125 6 27 6 
Q 33.203125 6 37.46875 10.296875 
Q 41.75 14.59375 41.75 20.953125 
Q 41.75 27 37.796875 30.921875 
Q 33.84375 34.859375 27.734375 34.859375 
Q 25.25 34.859375 21.53125 33.890625 
L 22.515625 41.609375 
Q 23.390625 41.5 23.921875 41.5 
Q 29.546875 41.5 34.03125 44.421875 
Q 38.53125 47.359375 38.53125 53.46875 
Q 38.53125 58.296875 35.25 61.46875 
Q 31.984375 64.65625 26.8125 64.65625 
Q 21.6875 64.65625 18.265625 61.421875 
Q 14.84375 58.203125 13.875 51.765625 
L 5.078125 53.328125 
Q 6.6875 62.15625 12.390625 67.015625 
Q 18.109375 71.875 26.609375 71.875 
Q 32.46875 71.875 37.390625 69.359375 
Q 42.328125 66.84375 44.9375 62.5 
Q 47.5625 58.15625 47.5625 53.265625 
Q 47.5625 48.640625 45.0625 44.828125 
Q 42.578125 41.015625 37.703125 38.765625 
Q 44.046875 37.3125 47.5625 32.6875 
Q 51.078125 28.078125 51.078125 21.140625 
Q 51.078125 11.765625 44.234375 5.25 
Q 37.40625 -1.265625 26.953125 -1.265625 
Q 17.53125 -1.265625 11.296875 4.34375 
Q 5.078125 9.96875 4.203125 18.890625 
" id="ArialMT-33"/>
     </defs>
     <g style="fill:#262626;" transform="translate(82.0 30.5578125)scale(0.1 -0.1)">
      <use xlink:href="#ArialMT-41"/>
      <use x="66.69921875" xlink:href="#ArialMT-62"/>
      <use x="122.314453125" xlink:href="#ArialMT-62"/>
      <use x="177.9296875" xlink:href="#ArialMT-6f"/>
      <use x="233.544921875" xlink:href="#ArialMT-74"/>
      <use x="261.328125" xlink:href="#ArialMT-74"/>
      <use x="289.111328125" xlink:href="#ArialMT-20"/>
      <use x="316.89453125" xlink:href="#ArialMT-32"/>
      <use x="372.509765625" xlink:href="#ArialMT-30"/>
      <use x="428.125" xlink:href="#ArialMT-31"/>
      <use x="483.740234375" xlink:href="#ArialMT-33"/>
     </g>
    </g>
    <g id="line2d_17">
     <path d="M 54 41.203125 
L 74 41.203125 
" style="fill:none;opacity:0.8;stroke:#55aaff;stroke-linecap:round;stroke-width:1.75;"/>
    </g>
    <g id="line2d_18"/>
    <g id="text_14">
     <!-- Turnbull 2016 -->
     <defs>
      <path d="M 25.921875 0 
L 25.921875 63.140625 
L 2.34375 63.140625 
L 2.34375 71.578125 
L 59.078125 71.578125 
L 59.078125 63.140625 
L 35.40625 63.140625 
L 35.40625 0 
z
" id="ArialMT-54"/>
      <path d="M 40.578125 0 
L 40.578125 7.625 
Q 34.515625 -1.171875 24.125 -1.171875 
Q 19.53125 -1.171875 15.546875 0.578125 
Q 11.578125 2.34375 9.640625 5 
Q 7.71875 7.671875 6.9375 11.53125 
Q 6.390625 14.109375 6.390625 19.734375 
L 6.390625 51.859375 
L 15.1875 51.859375 
L 15.1875 23.09375 
Q 15.1875 16.21875 15.71875 13.8125 
Q 16.546875 10.359375 19.234375 8.375 
Q 21.921875 6.390625 25.875 6.390625 
Q 29.828125 6.390625 33.296875 8.421875 
Q 36.765625 10.453125 38.203125 13.9375 
Q 39.65625 17.4375 39.65625 24.078125 
L 39.65625 51.859375 
L 48.4375 51.859375 
L 48.4375 0 
z
" id="ArialMT-75"/>
      <path d="M 49.75 54.046875 
L 41.015625 53.375 
Q 39.84375 58.546875 37.703125 60.890625 
Q 34.125 64.65625 28.90625 64.65625 
Q 24.703125 64.65625 21.53125 62.3125 
Q 17.390625 59.28125 14.984375 53.46875 
Q 12.59375 47.65625 12.5 36.921875 
Q 15.671875 41.75 20.265625 44.09375 
Q 24.859375 46.4375 29.890625 46.4375 
Q 38.671875 46.4375 44.84375 39.96875 
Q 51.03125 33.5 51.03125 23.25 
Q 51.03125 16.5 48.125 10.71875 
Q 45.21875 4.9375 40.140625 1.859375 
Q 35.0625 -1.21875 28.609375 -1.21875 
Q 17.625 -1.21875 10.6875 6.859375 
Q 3.765625 14.9375 3.765625 33.5 
Q 3.765625 54.25 11.421875 63.671875 
Q 18.109375 71.875 29.4375 71.875 
Q 37.890625 71.875 43.28125 67.140625 
Q 48.6875 62.40625 49.75 54.046875 
M 13.875 23.1875 
Q 13.875 18.65625 15.796875 14.5 
Q 17.71875 10.359375 21.1875 8.171875 
Q 24.65625 6 28.46875 6 
Q 34.03125 6 38.03125 10.484375 
Q 42.046875 14.984375 42.046875 22.703125 
Q 42.046875 30.125 38.078125 34.390625 
Q 34.125 38.671875 28.125 38.671875 
Q 22.171875 38.671875 18.015625 34.390625 
Q 13.875 30.125 13.875 23.1875 
" id="ArialMT-36"/>
     </defs>
     <g style="fill:#262626;" transform="translate(82.0 44.703125)scale(0.1 -0.1)">
      <use xlink:href="#ArialMT-54"/>
      <use x="61.037109375" xlink:href="#ArialMT-75"/>
      <use x="116.65234375" xlink:href="#ArialMT-72"/>
      <use x="149.953125" xlink:href="#ArialMT-6e"/>
      <use x="205.568359375" xlink:href="#ArialMT-62"/>
      <use x="261.18359375" xlink:href="#ArialMT-75"/>
      <use x="316.798828125" xlink:href="#ArialMT-6c"/>
      <use x="339.015625" xlink:href="#ArialMT-6c"/>
      <use x="361.232421875" xlink:href="#ArialMT-20"/>
      <use x="389.015625" xlink:href="#ArialMT-32"/>
      <use x="444.630859375" xlink:href="#ArialMT-30"/>
      <use x="500.24609375" xlink:href="#ArialMT-31"/>
      <use x="555.861328125" xlink:href="#ArialMT-36"/>
     </g>
    </g>
    <g id="line2d_19">
     <path d="M 54 55.348438 
L 74 55.348438 
" style="fill:none;opacity:0.8;stroke:#aa55ff;stroke-linecap:round;stroke-width:1.75;"/>
    </g>
    <g id="line2d_20"/>
    <g id="text_15">
     <!-- Gillard/Rudd 2013 -->
     <defs>
      <path d="M 41.21875 28.078125 
L 41.21875 36.46875 
L 71.53125 36.53125 
L 71.53125 9.96875 
Q 64.546875 4.390625 57.125 1.578125 
Q 49.703125 -1.21875 41.890625 -1.21875 
Q 31.34375 -1.21875 22.71875 3.296875 
Q 14.109375 7.8125 9.71875 16.359375 
Q 5.328125 24.90625 5.328125 35.453125 
Q 5.328125 45.90625 9.6875 54.953125 
Q 14.0625 64.015625 22.265625 68.40625 
Q 30.46875 72.796875 41.15625 72.796875 
Q 48.921875 72.796875 55.1875 70.28125 
Q 61.46875 67.78125 65.03125 63.28125 
Q 68.609375 58.796875 70.453125 51.5625 
L 61.921875 49.21875 
Q 60.296875 54.6875 57.90625 57.8125 
Q 55.515625 60.9375 51.0625 62.8125 
Q 46.625 64.703125 41.21875 64.703125 
Q 34.71875 64.703125 29.984375 62.71875 
Q 25.25 60.75 22.34375 57.515625 
Q 19.4375 54.296875 17.828125 50.4375 
Q 15.09375 43.796875 15.09375 36.03125 
Q 15.09375 26.46875 18.390625 20.015625 
Q 21.6875 13.578125 27.984375 10.453125 
Q 34.28125 7.328125 41.359375 7.328125 
Q 47.515625 7.328125 53.375 9.6875 
Q 59.234375 12.0625 62.25 14.75 
L 62.25 28.078125 
z
" id="ArialMT-47"/>
      <path d="M 0 -1.21875 
L 20.75 72.796875 
L 27.78125 72.796875 
L 7.078125 -1.21875 
z
" id="ArialMT-2f"/>
      <path d="M 7.859375 0 
L 7.859375 71.578125 
L 39.59375 71.578125 
Q 49.171875 71.578125 54.140625 69.640625 
Q 59.125 67.71875 62.109375 62.828125 
Q 65.09375 57.953125 65.09375 52.046875 
Q 65.09375 44.4375 60.15625 39.203125 
Q 55.21875 33.984375 44.921875 32.5625 
Q 48.6875 30.765625 50.640625 29 
Q 54.78125 25.203125 58.5 19.484375 
L 70.953125 0 
L 59.03125 0 
L 49.5625 14.890625 
Q 45.40625 21.34375 42.71875 24.75 
Q 40.046875 28.171875 37.921875 29.53125 
Q 35.796875 30.90625 33.59375 31.453125 
Q 31.984375 31.78125 28.328125 31.78125 
L 17.328125 31.78125 
L 17.328125 0 
z
M 17.328125 39.984375 
L 37.703125 39.984375 
Q 44.1875 39.984375 47.84375 41.328125 
Q 51.515625 42.671875 53.421875 45.625 
Q 55.328125 48.578125 55.328125 52.046875 
Q 55.328125 57.125 51.640625 60.390625 
Q 47.953125 63.671875 39.984375 63.671875 
L 17.328125 63.671875 
z
" id="ArialMT-52"/>
      <path d="M 40.234375 0 
L 40.234375 6.546875 
Q 35.296875 -1.171875 25.734375 -1.171875 
Q 19.53125 -1.171875 14.328125 2.25 
Q 9.125 5.671875 6.265625 11.796875 
Q 3.421875 17.921875 3.421875 25.875 
Q 3.421875 33.640625 6 39.96875 
Q 8.59375 46.296875 13.765625 49.65625 
Q 18.953125 53.03125 25.34375 53.03125 
Q 30.03125 53.03125 33.6875 51.046875 
Q 37.359375 49.078125 39.65625 45.90625 
L 39.65625 71.578125 
L 48.390625 71.578125 
L 48.390625 0 
z
M 12.453125 25.875 
Q 12.453125 15.921875 16.640625 10.984375 
Q 20.84375 6.0625 26.5625 6.0625 
Q 32.328125 6.0625 36.34375 10.765625 
Q 40.375 15.484375 40.375 25.140625 
Q 40.375 35.796875 36.265625 40.765625 
Q 32.171875 45.75 26.171875 45.75 
Q 20.3125 45.75 16.375 40.96875 
Q 12.453125 36.1875 12.453125 25.875 
" id="ArialMT-64"/>
     </defs>
     <g style="fill:#262626;" transform="translate(82.0 58.8484375)scale(0.1 -0.1)">
      <use xlink:href="#ArialMT-47"/>
      <use x="77.783203125" xlink:href="#ArialMT-69"/>
      <use x="100.0" xlink:href="#ArialMT-6c"/>
      <use x="122.216796875" xlink:href="#ArialMT-6c"/>
      <use x="144.43359375" xlink:href="#ArialMT-61"/>
      <use x="200.048828125" xlink:href="#ArialMT-72"/>
      <use x="233.349609375" xlink:href="#ArialMT-64"/>
      <use x="288.96484375" xlink:href="#ArialMT-2f"/>
      <use x="316.748046875" xlink:href="#ArialMT-52"/>
      <use x="388.96484375" xlink:href="#ArialMT-75"/>
      <use x="444.580078125" xlink:href="#ArialMT-64"/>
      <use x="500.1953125" xlink:href="#ArialMT-64"/>
      <use x="555.810546875" xlink:href="#ArialMT-20"/>
      <use x="583.59375" xlink:href="#ArialMT-32"/>
      <use x="639.208984375" xlink:href="#ArialMT-30"/>
      <use x="694.82421875" xlink:href="#ArialMT-31"/>
      <use x="750.439453125" xlink:href="#ArialMT-33"/>
     </g>
    </g>
    <g id="line2d_21">
     <path d="M 54 69.49375 
L 74 69.49375 
" style="fill:none;opacity:0.8;stroke:#ff00ff;stroke-linecap:round;stroke-width:1.75;"/>
    </g>
    <g id="line2d_22"/>
    <g id="text_16">
     <!-- Shorten 2016 -->
     <defs>
      <path d="M 4.5 23 
L 13.421875 23.78125 
Q 14.0625 18.40625 16.375 14.96875 
Q 18.703125 11.53125 23.578125 9.40625 
Q 28.46875 7.28125 34.578125 7.28125 
Q 39.984375 7.28125 44.140625 8.890625 
Q 48.296875 10.5 50.3125 13.296875 
Q 52.34375 16.109375 52.34375 19.4375 
Q 52.34375 22.796875 50.390625 25.3125 
Q 48.4375 27.828125 43.953125 29.546875 
Q 41.0625 30.671875 31.203125 33.03125 
Q 21.34375 35.40625 17.390625 37.5 
Q 12.25 40.1875 9.734375 44.15625 
Q 7.234375 48.140625 7.234375 53.078125 
Q 7.234375 58.5 10.296875 63.203125 
Q 13.375 67.921875 19.28125 70.359375 
Q 25.203125 72.796875 32.421875 72.796875 
Q 40.375 72.796875 46.453125 70.234375 
Q 52.546875 67.671875 55.8125 62.6875 
Q 59.078125 57.71875 59.328125 51.421875 
L 50.25 50.734375 
Q 49.515625 57.515625 45.28125 60.984375 
Q 41.0625 64.453125 32.8125 64.453125 
Q 24.21875 64.453125 20.28125 61.296875 
Q 16.359375 58.15625 16.359375 53.71875 
Q 16.359375 49.859375 19.140625 47.359375 
Q 21.875 44.875 33.421875 42.265625 
Q 44.96875 39.65625 49.265625 37.703125 
Q 55.515625 34.8125 58.484375 30.390625 
Q 61.46875 25.984375 61.46875 20.21875 
Q 61.46875 14.5 58.203125 9.4375 
Q 54.9375 4.390625 48.796875 1.578125 
Q 42.671875 -1.21875 35.015625 -1.21875 
Q 25.296875 -1.21875 18.71875 1.609375 
Q 12.15625 4.4375 8.421875 10.125 
Q 4.6875 15.828125 4.5 23 
" id="ArialMT-53"/>
      <path d="M 6.59375 0 
L 6.59375 71.578125 
L 15.375 71.578125 
L 15.375 45.90625 
Q 21.53125 53.03125 30.90625 53.03125 
Q 36.671875 53.03125 40.921875 50.75 
Q 45.171875 48.484375 47 44.484375 
Q 48.828125 40.484375 48.828125 32.859375 
L 48.828125 0 
L 40.046875 0 
L 40.046875 32.859375 
Q 40.046875 39.453125 37.1875 42.453125 
Q 34.328125 45.453125 29.109375 45.453125 
Q 25.203125 45.453125 21.75 43.421875 
Q 18.3125 41.40625 16.84375 37.9375 
Q 15.375 34.46875 15.375 28.375 
L 15.375 0 
z
" id="ArialMT-68"/>
     </defs>
     <g style="fill:#262626;" transform="translate(82.0 72.99375)scale(0.1 -0.1)">
      <use xlink:href="#ArialMT-53"/>
      <use x="66.69921875" xlink:href="#ArialMT-68"/>
      <use x="122.314453125" xlink:href="#ArialMT-6f"/>
      <use x="177.9296875" xlink:href="#ArialMT-72"/>
      <use x="211.23046875" xlink:href="#ArialMT-74"/>
      <use x="239.013671875" xlink:href="#ArialMT-65"/>
      <use x="294.62890625" xlink:href="#ArialMT-6e"/>
      <use x="350.244140625" xlink:href="#ArialMT-20"/>
      <use x="378.02734375" xlink:href="#ArialMT-32"/>
      <use x="433.642578125" xlink:href="#ArialMT-30"/>
      <use x="489.2578125" xlink:href="#ArialMT-31"/>
      <use x="544.873046875" xlink:href="#ArialMT-36"/>
     </g>
    </g>
   </g>
  </g>
 </g>
 <defs>
  <clipPath id="p91bcd179d4">
   <rect height="111.6" width="279.0" x="45.0" y="14.4"/>
  </clipPath>
 </defs>
</svg>
